<svg width="107" height="107" viewBox="0 0 107 107" fill="none" xmlns="http://www.w3.org/2000/svg">
<rect width="107" height="107" rx="53.5" fill="url(#paint0_linear_1429_54635)"/>
<path fill-rule="evenodd" clip-rule="evenodd" d="M41.2024 32.6998C41.4144 31.7963 41.9765 31.0139 42.7652 30.5247C43.5539 30.0356 44.5046 29.8797 45.4082 30.0914L74.3228 36.8697C75.2264 37.0817 76.0087 37.6438 76.4979 38.4325C76.987 39.2212 77.1429 40.1719 76.9312 41.0755L70.1529 69.9902C69.9279 70.8799 69.3625 71.6457 68.5785 72.1226C67.7944 72.5994 66.8543 72.7493 65.9608 72.5398C65.0673 72.3304 64.2919 71.7784 63.8014 71.0027C63.311 70.227 63.1448 69.2897 63.3387 68.3927L68.1886 47.7043L33.7271 69.0769C32.9382 69.5662 31.9873 69.722 31.0835 69.5101C30.1798 69.2983 29.3972 68.7361 28.908 67.9472C28.4187 67.1583 28.2629 66.2074 28.4748 65.3037C28.6866 64.3999 29.2488 63.6173 30.0377 63.1281L64.4992 41.7555L43.8108 36.9056C42.9073 36.6937 42.1249 36.1315 41.6357 35.3428C41.1466 34.5541 40.9907 33.6034 41.2024 32.6998Z" fill="black"/>
<defs>
<linearGradient id="paint0_linear_1429_54635" x1="0" y1="53.5" x2="107" y2="53.5" gradientUnits="userSpaceOnUse">
<stop stop-color="#84FE0A"/>
<stop offset="1" stop-color="#80FF95"/>
</linearGradient>
</defs>
</svg>
