<svg width="69" height="73" viewBox="0 0 69 73" fill="none" xmlns="http://www.w3.org/2000/svg">
<path d="M43.8635 12.1868C35.21 12.8133 28.704 20.242 29.3403 28.7618C29.9766 37.2817 37.5219 43.6872 46.1753 43.0607C54.8287 42.4343 61.3347 35.0107 60.6984 26.4909C60.0568 17.9659 52.5169 11.5604 43.8635 12.1868Z" fill="#82E23A" stroke="black" stroke-width="2.09507" stroke-miterlimit="10" stroke-linecap="round" stroke-linejoin="round"/>
<path d="M50.3714 14.973C45.9068 16.085 43.5155 21.7753 45.0319 27.6744C46.5484 33.5736 51.4001 37.4628 55.8646 36.3509C60.3292 35.2389 62.7206 29.5486 61.2094 23.6495C59.6929 17.7503 54.836 13.8663 50.3714 14.973Z" fill="#82E23A" stroke="black" stroke-width="2.09507" stroke-miterlimit="10" stroke-linecap="round" stroke-linejoin="round"/>
<path d="M55.7009 18.8527C53.2406 19.5522 52.0369 22.8255 53.0126 26.1666C53.9882 29.5024 56.7825 31.6481 59.2428 30.9485C61.7031 30.249 62.9068 26.9757 61.9311 23.6346C60.9502 20.2935 58.1612 18.1531 55.7009 18.8527Z" fill="white" stroke="black" stroke-width="2.09507" stroke-miterlimit="10" stroke-linecap="round" stroke-linejoin="round"/>
<mask id="mask0_1640_9946" style="mask-type:luminance" maskUnits="userSpaceOnUse" x="4" y="1" width="64" height="70">
<path d="M63.3485 36.3217C63.3485 36.3217 64.3719 36.2434 66.4663 36.1024C70.7718 56.5302 58.2795 70.1817 37.5738 70.9648C11.0144 71.9671 -5.16842 50.631 12.1491 34.4998C14.3919 13.9833 5.16586 8.30865 7.41406 3.33353C10.85 -4.2727 53.2794 13.9207 63.3485 36.3217Z" fill="white"/>
</mask>
<g mask="url(#mask0_1640_9946)">
<path fill-rule="evenodd" clip-rule="evenodd" d="M63.35 36.3212C63.35 36.3212 64.3733 36.2429 66.4678 36.102C70.7733 56.5297 58.281 70.1812 37.5753 70.9643C11.0158 71.9666 -5.16695 50.6306 12.1505 34.4993C14.3934 13.9828 5.16732 8.30816 7.41552 3.33305C10.8514 -4.27319 53.2808 13.9202 63.35 36.3212Z" fill="#82E23A"/>
</g>
<mask id="mask1_1640_9946" style="mask-type:luminance" maskUnits="userSpaceOnUse" x="4" y="1" width="64" height="70">
<path d="M63.3485 36.3217C63.3485 36.3217 64.3719 36.2434 66.4663 36.1024C70.7718 56.5302 58.2795 70.1817 37.5738 70.9648C11.0144 71.9671 -5.16842 50.631 12.1491 34.4998C14.3919 13.9833 5.16586 8.30865 7.41406 3.33353C10.85 -4.2727 53.2794 13.9207 63.3485 36.3217Z" fill="white"/>
</mask>
<g mask="url(#mask1_1640_9946)">
<path d="M-2.66586 -8.66982C8.79251 -18.7088 27.303 -16.6363 38.6819 -4.04971C50.0607 8.53685 49.9918 26.8816 38.5334 36.9206C27.075 46.9596 8.56451 44.887 -2.81433 32.3005C-14.1879 19.7087 -14.1242 1.36393 -2.66586 -8.66982Z" fill="url(#paint0_linear_1640_9946)"/>
</g>
<path fill-rule="evenodd" clip-rule="evenodd" d="M62.0264 35.9495C53.4313 18.2729 24.332 3.33716 12.4971 2.63762C11.9351 2.60629 8.99229 2.43922 8.40373 3.74956C7.55536 5.63938 8.91276 7.9364 10.5035 11.9666C12.3699 16.6964 14.4166 23.5247 13.2395 34.4825C13.2395 34.5034 13.2183 34.6757 13.2024 34.7487C13.1493 34.968 13.0274 35.1142 13.0062 35.1403C12.7092 35.5057 8.80141 38.7268 6.9827 43.7802C2.04091 57.5518 17.3912 71.4174 39.1998 69.8251C51.4429 68.9324 61.2045 63.2003 64.8313 52.8377C65.2873 51.5378 66.088 48.9745 66.2736 45.3202C66.4538 41.8277 65.9925 38.7581 65.7009 37.1711C62.3922 37.6409 58.3837 38.5545 54.4546 40.8619C53.8926 41.1908 51.3368 42.6734 48.2191 45.7848C42.8955 51.1045 40.764 60.4961 26.7817 59.8906C26.1136 59.8592 25.5886 59.8175 25.4879 59.807C25.3288 59.7914 25.3235 59.7914 25.2175 59.6713C25.2175 59.6713 25.1167 59.3894 25.122 59.3894C25.1645 59.3006 25.1804 59.191 25.2546 59.1231C25.4084 58.9926 25.4243 59.0187 25.6311 59.0292C40.2125 59.7183 41.4851 50.5041 47.1533 44.6416C51.1831 40.4808 55.5469 37.526 62.0264 35.9495ZM64.1526 35.5005C64.8313 35.3752 65.5312 35.2656 66.2577 35.1664C66.2789 35.1612 66.4379 35.1403 66.5228 35.1455C67.053 35.1664 67.2863 35.5527 67.3287 35.6153C67.3552 35.6623 67.3818 35.7093 67.3977 35.7615C67.4613 35.9181 67.6681 36.9988 67.7582 37.4895C69.5451 47.471 66.9205 53.9079 65.4358 56.8053C60.3243 66.7607 49.2477 72.0229 35.9017 72.049C13.3296 72.096 -1.29427 56.2884 5.68362 41.4049C7.41749 37.7035 10.0156 35.1142 11.161 34.0179C11.723 28.4476 11.6806 22.3762 9.6763 15.955C7.83108 10.0298 5.32837 6.89229 6.20326 3.65037C6.46307 2.68981 7.03573 1.56741 8.75899 0.961832C13.8068 -0.82357 25.8325 3.22752 36.9251 9.57562C48.0441 15.9342 59.3434 25.2005 64.1526 35.5005Z" fill="black"/>
<path d="M22.4153 22.8513C31.88 23.6866 38.8738 31.935 38.0254 41.2535C37.177 50.5721 28.7993 57.4579 19.3346 56.6226C9.86991 55.7873 2.87612 47.539 3.72449 38.2204C4.57287 28.9019 12.9506 22.0161 22.4153 22.8513Z" fill="#82E23A" stroke="black" stroke-width="2.09507" stroke-miterlimit="10" stroke-linecap="round" stroke-linejoin="round"/>
<path d="M15.2348 25.7962C20.1024 27.0908 22.621 33.3659 20.8553 39.7975C19.0896 46.2291 13.7024 50.4055 8.83489 49.1108C3.96733 47.8161 1.44871 41.5411 3.2144 35.1095C4.98008 28.6726 10.362 24.5015 15.2348 25.7962Z" fill="#82E23A" stroke="black" stroke-width="2.09507" stroke-miterlimit="10" stroke-linecap="round" stroke-linejoin="round"/>
<path d="M9.32363 29.9513C12.0066 30.7605 13.2633 34.3678 12.1339 38.0065C11.0045 41.6452 7.9079 43.9422 5.22491 43.133C2.54192 42.3238 1.28526 38.7165 2.41467 35.0778C3.54937 31.4391 6.64594 29.1421 9.32363 29.9513Z" fill="white" stroke="black" stroke-width="2.09507" stroke-miterlimit="10" stroke-linecap="round" stroke-linejoin="round"/>
<path d="M23.5898 13.322C24.3868 13.109 24.6945 11.7092 24.2771 10.1955C23.8598 8.68177 22.8753 7.62734 22.0783 7.84036C21.2813 8.05339 20.9736 9.45318 21.391 10.9669C21.8084 12.4806 22.7928 13.535 23.5898 13.322Z" fill="black"/>
<path d="M25.3213 18.5857C25.7707 18.4656 25.9055 17.5359 25.6223 16.5091C25.3392 15.4824 24.7454 14.7474 24.2961 14.8675C23.8467 14.9876 23.7119 15.9173 23.995 16.9441C24.2782 17.9709 24.8719 18.7058 25.3213 18.5857Z" fill="black"/>
<path d="M26.9663 15.2093C27.4157 15.0892 27.5505 14.1594 27.2674 13.1327C26.9843 12.1059 26.3905 11.3709 25.9411 11.491C25.4917 11.6111 25.3569 12.5409 25.6401 13.5676C25.9232 14.5944 26.517 15.3294 26.9663 15.2093Z" fill="black"/>
<defs>
<linearGradient id="paint0_linear_1640_9946" x1="38.5362" y1="36.9199" x2="-11.9084" y2="-20.6673" gradientUnits="userSpaceOnUse">
<stop stop-color="white" stop-opacity="0"/>
<stop offset="0.7332" stop-color="#FFFF00"/>
</linearGradient>
</defs>
</svg>
